<svg xmlns="http://www.w3.org/2000/svg" width="24" height="24" fill="none" viewBox="0 0 24 24">
  <path fill="#111" d="M8.537 2c-1.028 0-1.86 0-2.535.055-.695.057-1.31.177-1.881.468a4.8 4.8 0 0 0-2.098 2.098c-.29.57-.411 1.186-.468 1.881C1.5 7.177 1.5 8.01 1.5 9.037v4.693c0 .618 0 1.045.06 1.42a4.8 4.8 0 0 0 3.99 3.99c.377.06.74.058 1.03.053l.1-.001c.261-.004.458-.007.653.01a.9.9 0 0 1 .583.293c.192.211.342.421.522.675.097.136.203.285.329.453l.026.035c.39.52.722.963 1.022 1.296.31.346.666.667 1.133.849a2.9 2.9 0 0 0 2.103 0c.467-.182.822-.503 1.133-.849.3-.333.631-.776 1.021-1.296l.027-.035c.126-.168.232-.317.328-.453a6.9 6.9 0 0 1 .522-.675.9.9 0 0 1 .584-.292c.194-.018.391-.015.653-.011l.1.001a5.97 5.97 0 0 0 1.03-.053 4.8 4.8 0 0 0 3.99-3.99c.06-.375.06-.802.06-1.42V9.037c0-1.028 0-1.86-.055-2.535-.057-.695-.178-1.31-.469-1.881a4.8 4.8 0 0 0-2.097-2.098c-.571-.29-1.186-.411-1.882-.468C17.322 2 16.49 2 15.462 2H8.537Z" opacity=".28"/>
  <path stroke="#111" stroke-linecap="round" stroke-linejoin="round" stroke-width="2" d="M12 8c.004.1.005.151.008.195a3 3 0 0 0 2.797 2.797L15 11c-.1.004-.151.005-.195.008a3 3 0 0 0-2.797 2.797L12 14c-.004-.1-.005-.151-.008-.195a3 3 0 0 0-2.797-2.797L9 11c.1-.004.151-.005.195-.008a3 3 0 0 0 2.797-2.797L12 8Z"/>
</svg>
