<svg width="268" height="75" viewBox="0 0 268 75" fill="none" xmlns="http://www.w3.org/2000/svg">
<mask id="path-1-inside-1_266_37629" fill="white">
<path d="M14.8755 19.5812C18.0805 8.44075 27.4228 0 39.0152 0H228.985C240.577 0 249.919 8.44075 253.125 19.5812C255.846 29.0422 259.776 35.2859 268 37.5C260.135 39.0126 255.411 44.1263 252.556 52.9491C248.675 64.9427 239.224 75 226.618 75H41.382C28.7762 75 19.3246 64.9427 15.4437 52.9491C12.5888 44.1263 7.86537 39.0126 0 37.5C8.22372 35.2859 12.1536 29.0422 14.8755 19.5812Z"/>
</mask>
<path d="M14.8755 19.5812C18.0805 8.44075 27.4228 0 39.0152 0H228.985C240.577 0 249.919 8.44075 253.125 19.5812C255.846 29.0422 259.776 35.2859 268 37.5C260.135 39.0126 255.411 44.1263 252.556 52.9491C248.675 64.9427 239.224 75 226.618 75H41.382C28.7762 75 19.3246 64.9427 15.4437 52.9491C12.5888 44.1263 7.86537 39.0126 0 37.5C8.22372 35.2859 12.1536 29.0422 14.8755 19.5812Z" fill="#DDF25B"/>
<path d="M268 37.5L269.133 43.392L269.56 31.7063L268 37.5ZM0 37.5L-1.55984 31.7063L-1.13308 43.392L0 37.5ZM252.556 52.9491L246.848 51.1019L252.556 52.9491ZM14.8755 19.5812L9.10937 17.9224L14.8755 19.5812ZM39.0152 6H228.985V-6H39.0152V6ZM226.618 69H41.382V81H226.618V69ZM247.358 21.2401C250.286 31.4164 255.152 40.2546 266.44 43.2937L269.56 31.7063C264.4 30.3172 261.407 26.668 258.891 17.9224L247.358 21.2401ZM266.867 31.608C261.84 32.5746 257.561 34.7684 254.116 38.282C250.743 41.7205 248.458 46.1262 246.848 51.1019L258.265 54.7963C259.51 50.9492 261.013 48.3866 262.683 46.6845C264.279 45.0573 266.294 43.938 269.133 43.392L266.867 31.608ZM9.10937 17.9224C6.59332 26.668 3.59954 30.3172 -1.55984 31.7063L1.55984 43.2937C12.8479 40.2546 17.714 31.4164 20.6416 21.2401L9.10937 17.9224ZM-1.13308 43.392C1.70572 43.938 3.72129 45.0573 5.31714 46.6845C6.98658 48.3866 8.49029 50.9492 9.73512 54.7963L21.1523 51.1019C19.5423 46.1262 17.2568 41.7205 13.8844 38.282C10.4385 34.7684 6.15964 32.5746 1.13308 31.608L-1.13308 43.392ZM41.382 69C32.3645 69 24.5844 61.7086 21.1523 51.1019L9.73512 54.7963C14.0647 68.1767 25.1879 81 41.382 81V69ZM226.618 81C242.812 81 253.935 68.1767 258.265 54.7963L246.848 51.1019C243.416 61.7086 235.636 69 226.618 69V81ZM228.985 6C237.404 6 244.745 12.1576 247.358 21.2401L258.891 17.9224C255.094 4.72388 243.75 -6 228.985 -6V6ZM39.0152 -6C24.25 -6 12.9065 4.72388 9.10937 17.9224L20.6416 21.2401C23.2546 12.1576 30.5957 6 39.0152 6V-6Z" fill="#EDFF7C" mask="url(#path-1-inside-1_266_37629)"/>
</svg>
